# xmcd
#
# Track frame offsets:
#	150
#	13983
#	31320
#	43984
#	57575
#	72201
#	87836
#	102488
#	117942
#	130580
#	146446
#	161754
#	175520
#	190611
#	207311
#	223760
#	239087
#	255345
#
# Disc length: 3630 seconds
#
# Revision: 1
# Processed by: cddbd v1.5.2PL0 Copyright (c) Steve Scherf et al.
# Submitted via: audiograbber 1.82.02
#
DISCID=070e2c12
DTITLE=Various Artist - Country Radio - January 2018
DYEAR=2018
DGENRE=Country
TTITLE0=Kalie Shorr - Two Hands
TTITLE1=Alexandra Demetree - Outta My Head
TTITLE2=Brandon Ray - Ends Of The Earth
TTITLE3=Brown and Gray - Top Down
TTITLE4=Trace Adkins - Still A Soldier
TTITLE5=Shania Twain - We Got Something They Don't
TTITLE6=Michael Tyler - Hey Mama
TTITLE7=Tenille Arts - Cold Feet
TTITLE8=Lewis Brice - Best Ex Ever
TTITLE9=Dalton Domino - Mine Again (I'd Be A Fool)
TTITLE10=Jo Smith - Old School Groove
TTITLE11=Leslie Satcher and The Electric Honey Badgers (Ft. Vince Gill and Sheryl C
TTITLE11=row) - This Won't Take Long
TTITLE12=Lindsey Ell - Criminal
TTITLE13=Brandon Stansell - Slow Down
TTITLE14=Mo Pitney - Clean Up On Aisle Five
TTITLE15=Chris Janson - Drunk Girl
TTITLE16=Chelsea Williams - Lonely Girl
TTITLE17=Tyler Jordan - Why Her
EXTD=
EXTT0=
EXTT1=
EXTT2=
EXTT3=
EXTT4=
EXTT5=
EXTT6=
EXTT7=
EXTT8=
EXTT9=
EXTT10=
EXTT11=
EXTT12=
EXTT13=
EXTT14=
EXTT15=
EXTT16=
EXTT17=
PLAYORDER=
